<svg width="32" height="32" viewBox="0 0 32 32" fill="none" xmlns="http://www.w3.org/2000/svg" xmlns:xlink="http://www.w3.org/1999/xlink">
<path d="M22.138,14.731C22.95,13.347 23.301,11.74 23.14,10.144C22.901,7.765 21.573,5.663 19.402,4.224L17.929,6.445C19.421,7.435 20.329,8.844 20.486,10.411C20.559,11.139 20.468,11.874 20.221,12.563C19.974,13.251 19.576,13.876 19.057,14.392L17.468,15.981L19.625,16.615C25.268,18.268 25.333,23.943 25.333,24L28,24C28,21.615 26.725,16.953 22.138,14.731Z" fill="url(#pf_0_20_16)"/>
<path d="M12.667,16C15.608,16 18,13.608 18,10.667C18,7.725 15.608,5.333 12.667,5.333C9.725,5.333 7.333,7.725 7.333,10.667C7.333,13.608 9.725,16 12.667,16ZM12.667,8C14.137,8 15.333,9.196 15.333,10.667C15.333,12.137 14.137,13.333 12.667,13.333C11.196,13.333 10,12.137 10,10.667C10,9.196 11.196,8 12.667,8ZM14.667,17.333L10.667,17.333C6.255,17.333 2.667,20.921 2.667,25.333L2.667,26.667L5.333,26.667L5.333,25.333C5.333,22.392 7.725,20 10.667,20L14.667,20C17.608,20 20,22.392 20,25.333L20,26.667L22.667,26.667L22.667,25.333C22.667,20.921 19.079,17.333 14.667,17.333Z" fill="url(#pf_0_20_17)"/>
<defs>
<linearGradient id="pf_0_20_16" x1="16.316" y1="18.129" x2="28" y2="10.095" gradientUnits="userSpaceOnUse">
<stop stop-color="#0C386C"/>
<stop offset="1" stop-color="#294F97"/>
</linearGradient>
<linearGradient id="pf_0_20_17" x1="0.479" y1="20.333" x2="22.666" y2="11.667" gradientUnits="userSpaceOnUse">
<stop stop-color="#0C386C"/>
<stop offset="1" stop-color="#294F97"/>
</linearGradient>
</defs>
</svg>
