<svg width="32" height="32" viewBox="0 0 32 32" fill="none" xmlns="http://www.w3.org/2000/svg" xmlns:xlink="http://www.w3.org/1999/xlink">
<path d="M6.067,23.133L6.067,28.8L11.733,27.4L16,31.667L20.267,27.4L25.933,28.8L25.933,23.133L31.667,21.667L28.8,16L31.667,10.333L25.933,8.867L25.933,3.2L20.267,4.6L16,0.333L11.733,4.6L6.067,3.2L6.067,8.867L0.333,10.333L3.2,16L0.333,21.667L6.067,23.133ZM5.733,14.733L4.467,12.133L6.733,11.6C7.4,11.467 7.922,11.144 8.3,10.633C8.678,10.122 8.867,9.533 8.867,8.867L8.867,6.867L11,7.467L11.733,7.467C12.489,7.467 13.156,7.178 13.733,6.6L16,4.333L18.267,6.6C18.845,7.178 19.511,7.467 20.267,7.467C20.533,7.467 20.778,7.422 21,7.333L23.133,6.867L23.133,8.867C23.133,9.533 23.322,10.122 23.7,10.633C24.078,11.144 24.6,11.467 25.267,11.6L27.533,12.133L26.267,14.733C25.822,15.578 25.822,16.422 26.267,17.267L27.533,19.867L25.267,20.4C24.6,20.533 24.078,20.856 23.7,21.367C23.322,21.878 23.133,22.467 23.133,23.133L23.133,25.133L21,24.533L20.267,24.533C19.511,24.533 18.845,24.822 18.267,25.4L16,27.667L13.733,25.4C13.156,24.822 12.489,24.533 11.733,24.533C11.467,24.533 11.222,24.578 11,24.667L8.867,25.133L8.867,23.133C8.867,22.467 8.678,21.878 8.3,21.367C7.922,20.856 7.4,20.533 6.733,20.4L4.467,19.867L5.733,17.267C6.178,16.422 6.178,15.578 5.733,14.733ZM14.6,20.867L21.267,14.133C21.889,13.511 21.889,12.844 21.267,12.133C20.6,11.556 19.933,11.556 19.267,12.133L14.6,16.867L12.733,15C12.067,14.422 11.4,14.422 10.733,15C10.156,15.667 10.156,16.333 10.733,17L14.6,20.867Z" fill="url(#pf_0_11_55)"/>
<defs>
<linearGradient id="pf_0_11_55" x1="-3.094" y1="22.365" x2="31.667" y2="9.635" gradientUnits="userSpaceOnUse">
<stop stop-color="#0C386C"/>
<stop offset="1" stop-color="#294F97"/>
</linearGradient>
</defs>
</svg>
