<svg width="32" height="28" viewBox="0 0 32 28" fill="none" xmlns="http://www.w3.org/2000/svg" xmlns:xlink="http://www.w3.org/1999/xlink">
<path d="M7.431,16.667C7.801,16.667 8.155,16.807 8.417,17.057C8.678,17.307 8.825,17.646 8.825,18C8.825,18.354 8.678,18.693 8.417,18.943C8.155,19.193 7.801,19.333 7.431,19.333C6.516,19.333 5.61,19.161 4.764,18.826C3.918,18.491 3.15,18 2.503,17.381C1.196,16.13 0.461,14.435 0.461,12.667C0.461,10.899 1.196,9.203 2.503,7.953C3.81,6.702 5.583,6 7.431,6C8.825,2.867 12.031,0.667 15.795,0.667C20.576,0.667 24.493,4.213 24.855,8.707L25.552,8.667C27.031,8.667 28.449,9.229 29.495,10.229C30.541,11.229 31.128,12.586 31.128,14C31.128,15.415 30.541,16.771 29.495,17.771C28.449,18.771 27.031,19.333 25.552,19.333L24.158,19.333C23.789,19.333 23.434,19.193 23.173,18.943C22.911,18.693 22.764,18.354 22.764,18C22.764,17.646 22.911,17.307 23.173,17.057C23.434,16.807 23.789,16.667 24.158,16.667L25.552,16.667C26.292,16.667 27.001,16.386 27.524,15.886C28.046,15.386 28.34,14.707 28.34,14C28.34,13.293 28.046,12.615 27.524,12.114C27.001,11.614 26.292,11.333 25.552,11.333L22.764,11.333L22.764,10C22.764,8.232 22.03,6.536 20.723,5.286C19.416,4.036 17.643,3.333 15.795,3.333C12.31,3.333 9.452,5.76 8.909,8.92C8.449,8.76 7.947,8.667 7.431,8.667C6.322,8.667 5.258,9.088 4.474,9.838C3.69,10.588 3.249,11.606 3.249,12.667C3.249,13.728 3.69,14.745 4.474,15.495C5.258,16.245 6.322,16.667 7.431,16.667L7.431,16.667ZM13.007,22C13.746,22 14.455,22.281 14.978,22.781C15.501,23.281 15.795,23.959 15.795,24.667C15.795,25.374 15.501,26.052 14.978,26.552C14.455,27.052 13.746,27.333 13.007,27.333C12.267,27.333 11.558,27.052 11.036,26.552C10.513,26.052 10.219,25.374 10.219,24.667C10.219,23.959 10.513,23.281 11.036,22.781C11.558,22.281 12.267,22 13.007,22ZM19.28,19.333C19.834,19.333 20.366,19.544 20.758,19.919C21.15,20.294 21.37,20.803 21.37,21.333C21.37,21.864 21.15,22.372 20.758,22.747C20.366,23.123 19.834,23.333 19.28,23.333C18.725,23.333 18.193,23.123 17.801,22.747C17.409,22.372 17.189,21.864 17.189,21.333C17.189,20.803 17.409,20.294 17.801,19.919C18.193,19.544 18.725,19.333 19.28,19.333L19.28,19.333ZM13.704,14C14.258,14 14.79,14.211 15.182,14.586C15.574,14.961 15.795,15.47 15.795,16C15.795,16.53 15.574,17.039 15.182,17.414C14.79,17.789 14.258,18 13.704,18C13.149,18 12.617,17.789 12.225,17.414C11.833,17.039 11.613,16.53 11.613,16C11.613,15.47 11.833,14.961 12.225,14.586C12.617,14.211 13.149,14 13.704,14Z" fill="#FFFFFF"/>
</svg>
