<svg width="38" height="46" viewBox="0 0 38 46" fill="none" xmlns="http://www.w3.org/2000/svg" xmlns:xlink="http://www.w3.org/1999/xlink">
<path d="M30,1C31.1,1 32,1.9 32,3L32,7L36,7C37.1,7 38,7.9 38,9C38,10.1 37.1,11 36,11L32,11L32,15C32,16.1 31.1,17 30,17C28.9,17 28,16.1 28,15L28,11L24,11C22.9,11 22,10.1 22,9C22,7.9 22.9,7 24,7L28,7L28,3C28,1.9 28.9,1 30,1ZM16,25C18.2,25 20,23.2 20,21C20,18.8 18.2,17 16,17C13.8,17 12,18.8 12,21C12,23.2 13.8,25 16,25ZM21.44,5.94C20.56,6.66 20,7.76 20,9C20,11.2 21.8,13 24,13L26,13L26,15C26,17.2 27.8,19 30,19C30.64,19 31.24,18.84 31.78,18.58C31.92,19.48 32,20.42 32,21.4C32,27.76 27.1,35.24 17.32,43.86C16.56,44.52 15.42,44.52 14.66,43.86C4.9,35.24 0,27.76 0,21.4C0,11.44 7.6,5 16,5C17.88,5 19.72,5.32 21.44,5.94Z" fill="#FBF99E"/>
</svg>
