<svg width="28" height="40" viewBox="0 0 28 40" fill="none" xmlns="http://www.w3.org/2000/svg" xmlns:xlink="http://www.w3.org/1999/xlink">
<path d="M14,1C6.26,1 0,7.26 0,15C0,23.34 8.84,34.84 12.48,39.22C13.28,40.18 14.74,40.18 15.54,39.22C19.16,34.84 28,23.34 28,15C28,7.26 21.74,1 14,1ZM14,20C12.674,20 11.402,19.473 10.464,18.536C9.527,17.598 9,16.326 9,15C9,13.674 9.527,12.402 10.464,11.464C11.402,10.527 12.674,10 14,10C15.326,10 16.598,10.527 17.536,11.464C18.473,12.402 19,13.674 19,15C19,16.326 18.473,17.598 17.536,18.536C16.598,19.473 15.326,20 14,20Z" fill="url(#pf_0_71_129)"/>
<defs>
<linearGradient id="pf_0_71_129" x1="27.701" y1="1.634" x2="-26.421" y2="71.726" gradientUnits="userSpaceOnUse">
<stop stop-color="#FFFFFF"/>
<stop offset="1" stop-color="#FFFFFF" stop-opacity="0"/>
</linearGradient>
</defs>
</svg>
