<svg width="36" height="36" viewBox="0 0 36 36" fill="none" xmlns="http://www.w3.org/2000/svg" xmlns:xlink="http://www.w3.org/1999/xlink">
<path d="M30,12C31.218,12 32.408,11.629 33.41,10.937C34.412,10.244 35.18,9.263 35.612,8.124C36.043,6.984 36.117,5.741 35.824,4.558C35.531,3.375 34.886,2.31 33.973,1.503C33.06,0.697 31.923,0.187 30.713,0.042C29.503,-0.102 28.278,0.125 27.201,0.693C26.123,1.262 25.244,2.145 24.68,3.225C24.117,4.305 23.896,5.531 24.046,6.74L10.166,13.68C9.318,12.863 8.249,12.313 7.091,12.099C5.933,11.885 4.738,12.016 3.655,12.477C2.571,12.937 1.647,13.706 0.997,14.688C0.347,15.67 0.001,16.822 0.001,17.999C0.001,19.176 0.347,20.328 0.997,21.31C1.647,22.292 2.571,23.061 3.655,23.521C4.738,23.982 5.933,24.113 7.091,23.899C8.249,23.685 9.318,23.135 10.166,22.318L24.046,29.258C23.871,30.662 24.198,32.084 24.969,33.27C25.741,34.457 26.907,35.333 28.262,35.743C29.616,36.153 31.072,36.071 32.372,35.511C33.672,34.951 34.733,33.95 35.366,32.684C35.999,31.419 36.164,29.97 35.833,28.594C35.501,27.218 34.694,26.003 33.553,25.165C32.413,24.327 31.013,23.919 29.601,24.013C28.188,24.107 26.855,24.698 25.836,25.68L11.956,18.74C12.016,18.249 12.016,17.751 11.956,17.26L25.836,10.32C26.912,11.36 28.38,12 30,12Z" fill="#A098AE"/>
</svg>
