<svg width="28" height="38" viewBox="0 0 28 38" fill="none" xmlns="http://www.w3.org/2000/svg" xmlns:xlink="http://www.w3.org/1999/xlink">
<path d="M14,-1C6.26,-1 0,5.26 0,13C0,21.34 8.84,32.84 12.48,37.22C13.28,38.18 14.74,38.18 15.54,37.22C19.16,32.84 28,21.34 28,13C28,5.26 21.74,-1 14,-1ZM14,18C12.674,18 11.402,17.473 10.464,16.536C9.527,15.598 9,14.326 9,13C9,11.674 9.527,10.402 10.464,9.464C11.402,8.527 12.674,8 14,8C15.326,8 16.598,8.527 17.536,9.464C18.473,10.402 19,11.674 19,13C19,14.326 18.473,15.598 17.536,16.536C16.598,17.473 15.326,18 14,18L14,18Z" fill="#363B64"/>
</svg>
