<svg width="50" height="52" viewBox="0 0 50 52" fill="none" xmlns="http://www.w3.org/2000/svg" xmlns:xlink="http://www.w3.org/1999/xlink">
<path d="M27.871,4.667L25.258,12.491L22.644,4.667C22.503,4.243 22.464,3.791 22.528,3.348C22.592,2.906 22.759,2.485 23.015,2.121C23.27,1.758 23.607,1.461 23.997,1.257C24.387,1.052 24.819,0.946 25.258,0.946C25.696,0.946 26.129,1.052 26.519,1.257C26.909,1.461 27.245,1.758 27.501,2.121C27.756,2.485 27.923,2.906 27.988,3.348C28.052,3.791 28.012,4.243 27.871,4.667ZM4.351,23.333L12.018,26L4.351,28.667C3.935,28.81 3.492,28.851 3.059,28.785C2.625,28.72 2.213,28.55 1.856,28.289C1.5,28.028 1.209,27.685 1.009,27.287C0.809,26.888 0.704,26.447 0.704,26C0.704,25.552 0.809,25.111 1.009,24.713C1.209,24.315 1.5,23.972 1.856,23.711C2.213,23.45 2.625,23.28 3.059,23.214C3.492,23.149 3.935,23.19 4.351,23.333ZM22.644,47.333L25.258,39.509L27.871,47.333C28.012,47.757 28.052,48.209 27.988,48.652C27.923,49.094 27.756,49.515 27.501,49.879C27.245,50.242 26.909,50.539 26.519,50.743C26.129,50.948 25.696,51.054 25.258,51.054C24.819,51.054 24.387,50.948 23.997,50.743C23.607,50.539 23.27,50.242 23.015,49.879C22.759,49.515 22.592,49.094 22.528,48.652C22.464,48.209 22.503,47.757 22.644,47.333ZM46.165,28.661L38.497,25.995L46.165,23.328C46.58,23.184 47.023,23.143 47.457,23.209C47.891,23.275 48.303,23.445 48.659,23.706C49.016,23.966 49.306,24.31 49.507,24.708C49.707,25.106 49.811,25.547 49.811,25.995C49.811,26.442 49.707,26.883 49.507,27.281C49.306,27.679 49.016,28.023 48.659,28.284C48.303,28.544 47.891,28.714 47.457,28.78C47.023,28.846 46.58,28.805 46.165,28.661ZM12.321,9.029L15.894,16.445L8.626,12.8C8.231,12.603 7.888,12.312 7.625,11.952C7.363,11.593 7.188,11.174 7.115,10.732C7.043,10.289 7.075,9.835 7.21,9.408C7.344,8.981 7.576,8.592 7.887,8.275C8.198,7.958 8.578,7.721 8.997,7.584C9.416,7.447 9.861,7.414 10.294,7.488C10.728,7.562 11.138,7.74 11.491,8.008C11.843,8.276 12.128,8.626 12.321,9.029L12.321,9.029ZM8.626,39.197L15.894,35.552L12.321,42.968C12.128,43.371 11.843,43.721 11.491,43.989C11.138,44.257 10.728,44.436 10.294,44.509C9.861,44.583 9.416,44.55 8.997,44.413C8.578,44.276 8.198,44.04 7.887,43.722C7.576,43.405 7.344,43.017 7.21,42.589C7.075,42.162 7.043,41.708 7.115,41.266C7.188,40.823 7.363,40.405 7.625,40.045C7.888,39.685 8.231,39.395 8.626,39.197L8.626,39.197ZM38.191,42.968L34.619,35.552L41.887,39.197C42.282,39.395 42.625,39.685 42.888,40.045C43.15,40.405 43.325,40.823 43.397,41.266C43.47,41.708 43.437,42.162 43.303,42.589C43.169,43.017 42.937,43.405 42.626,43.722C42.315,44.04 41.934,44.276 41.516,44.413C41.097,44.55 40.652,44.583 40.218,44.509C39.785,44.436 39.375,44.257 39.022,43.989C38.669,43.721 38.385,43.371 38.191,42.968L38.191,42.968ZM41.884,12.795L34.614,16.443L38.189,9.024C38.382,8.621 38.667,8.271 39.019,8.003C39.372,7.735 39.782,7.556 40.216,7.483C40.65,7.409 41.094,7.442 41.513,7.579C41.932,7.716 42.312,7.952 42.623,8.27C42.934,8.587 43.166,8.975 43.301,9.403C43.435,9.83 43.467,10.284 43.395,10.726C43.323,11.169 43.148,11.587 42.885,11.947C42.622,12.307 42.279,12.597 41.884,12.795L41.884,12.795ZM25.258,38C18.774,38 13.497,32.616 13.497,26C13.497,19.384 18.774,14 25.258,14C31.742,14 37.018,19.384 37.018,26C37.018,32.616 31.742,38 25.258,38ZM25.258,19.333C21.654,19.333 18.724,22.323 18.724,26C18.724,29.677 21.654,32.667 25.258,32.667C28.862,32.667 31.791,29.677 31.791,26C31.791,22.323 28.862,19.333 25.258,19.333Z" fill="#FF9F5A"/>
</svg>
