<svg width="64" height="64" viewBox="0 0 64 64" fill="none" xmlns="http://www.w3.org/2000/svg" xmlns:xlink="http://www.w3.org/1999/xlink">
<path d="M34.767,5.333L31.463,15.113L28.158,5.333C27.98,4.804 27.93,4.239 28.011,3.685C28.093,3.132 28.303,2.606 28.626,2.152C28.95,1.697 29.375,1.327 29.869,1.071C30.362,0.816 30.908,0.682 31.463,0.682C32.017,0.682 32.564,0.816 33.057,1.071C33.55,1.327 33.976,1.697 34.299,2.152C34.622,2.606 34.833,3.132 34.914,3.685C34.996,4.239 34.945,4.804 34.767,5.333ZM5.027,28.667L14.722,32L5.027,35.333C4.502,35.513 3.942,35.564 3.394,35.482C2.845,35.4 2.324,35.187 1.873,34.861C1.423,34.535 1.055,34.106 0.802,33.608C0.549,33.111 0.417,32.559 0.417,32C0.417,31.441 0.549,30.889 0.802,30.392C1.055,29.894 1.423,29.465 1.873,29.139C2.324,28.813 2.845,28.6 3.394,28.518C3.942,28.436 4.502,28.487 5.027,28.667ZM28.158,58.667L31.463,48.887L34.767,58.667C34.945,59.196 34.996,59.761 34.914,60.314C34.833,60.868 34.622,61.393 34.299,61.848C33.976,62.303 33.55,62.673 33.057,62.929C32.564,63.184 32.017,63.318 31.463,63.318C30.908,63.318 30.362,63.184 29.869,62.929C29.375,62.673 28.95,62.303 28.626,61.848C28.303,61.393 28.093,60.868 28.011,60.314C27.93,59.761 27.98,59.196 28.158,58.667ZM57.898,35.327L48.203,31.993L57.898,28.66C58.423,28.48 58.983,28.429 59.532,28.511C60.08,28.594 60.602,28.806 61.052,29.132C61.503,29.458 61.87,29.887 62.123,30.385C62.377,30.883 62.509,31.434 62.509,31.993C62.509,32.553 62.377,33.104 62.123,33.601C61.87,34.099 61.503,34.529 61.052,34.854C60.602,35.18 60.08,35.393 59.532,35.475C58.983,35.557 58.423,35.506 57.898,35.327ZM15.106,10.787L19.623,20.057L10.433,15.5C9.934,15.254 9.5,14.89 9.168,14.441C8.836,13.991 8.615,13.468 8.523,12.915C8.432,12.361 8.473,11.794 8.642,11.26C8.812,10.726 9.106,10.24 9.499,9.844C9.892,9.447 10.373,9.151 10.903,8.98C11.432,8.809 11.994,8.768 12.543,8.86C13.091,8.952 13.61,9.175 14.056,9.51C14.501,9.845 14.861,10.283 15.106,10.787L15.106,10.787ZM10.433,48.497L19.623,43.94L15.106,53.21C14.861,53.714 14.501,54.151 14.056,54.486C13.61,54.822 13.091,55.045 12.543,55.137C11.994,55.229 11.432,55.188 10.903,55.017C10.373,54.845 9.892,54.549 9.499,54.153C9.106,53.756 8.812,53.271 8.642,52.737C8.473,52.202 8.432,51.635 8.523,51.082C8.615,50.529 8.836,50.006 9.168,49.556C9.5,49.106 9.934,48.743 10.433,48.497L10.433,48.497ZM47.816,53.21L43.299,43.94L52.489,48.497C52.988,48.743 53.422,49.106 53.754,49.556C54.087,50.006 54.308,50.529 54.399,51.082C54.49,51.635 54.45,52.202 54.28,52.737C54.11,53.271 53.817,53.756 53.424,54.153C53.03,54.549 52.549,54.845 52.02,55.017C51.49,55.188 50.928,55.229 50.379,55.137C49.831,55.045 49.312,54.822 48.867,54.486C48.421,54.151 48.061,53.714 47.816,53.21L47.816,53.21ZM52.486,15.493L43.293,20.053L47.813,10.78C48.057,10.276 48.418,9.839 48.863,9.503C49.309,9.168 49.828,8.945 50.376,8.853C50.925,8.761 51.487,8.802 52.016,8.973C52.546,9.144 53.027,9.441 53.42,9.837C53.813,10.234 54.107,10.719 54.277,11.253C54.446,11.787 54.487,12.355 54.396,12.908C54.304,13.461 54.083,13.984 53.751,14.434C53.419,14.884 52.985,15.247 52.486,15.493L52.486,15.493ZM31.463,47C23.264,47 16.593,40.27 16.593,32C16.593,23.73 23.264,17 31.463,17C39.661,17 46.333,23.73 46.333,32C46.333,40.27 39.661,47 31.463,47ZM31.463,23.667C26.906,23.667 23.202,27.403 23.202,32C23.202,36.597 26.906,40.333 31.463,40.333C36.02,40.333 39.724,36.597 39.724,32C39.724,27.403 36.02,23.667 31.463,23.667Z" fill="url(#pf_0_57_95)"/>
<defs>
<linearGradient id="pf_0_57_95" x1="31.463" y1="0.682" x2="31.463" y2="63.318" gradientUnits="userSpaceOnUse">
<stop stop-color="#3C6FD1"/>
<stop offset="0" stop-color="#3C6FD1"/>
<stop offset="1" stop-color="#7CA9FF"/>
</linearGradient>
</defs>
</svg>
