<svg width="38" height="38" viewBox="0 0 38 38" fill="none" xmlns="http://www.w3.org/2000/svg" xmlns:xlink="http://www.w3.org/1999/xlink">
<path d="M28.647,25.81C31.141,22.594 32.316,18.55 31.934,14.499C31.551,10.447 29.64,6.694 26.589,4.002C23.537,1.31 19.575,-0.118 15.507,0.008C11.44,0.134 7.574,1.804 4.695,4.68C1.813,7.557 0.137,11.425 0.008,15.495C-0.121,19.566 1.307,23.532 4.001,26.586C6.695,29.64 10.452,31.552 14.507,31.932C18.561,32.312 22.608,31.132 25.823,28.632L25.909,28.722L34.393,37.208C34.578,37.393 34.799,37.541 35.042,37.641C35.285,37.742 35.545,37.794 35.808,37.794C36.07,37.794 36.331,37.742 36.573,37.641C36.816,37.541 37.037,37.393 37.223,37.208C37.408,37.022 37.556,36.801 37.656,36.558C37.757,36.316 37.809,36.055 37.809,35.793C37.809,35.53 37.757,35.27 37.656,35.027C37.556,34.784 37.408,34.563 37.223,34.378L28.737,25.894C28.707,25.865 28.677,25.837 28.647,25.81L28.647,25.81ZM24.495,7.51C25.624,8.621 26.522,9.944 27.137,11.404C27.752,12.864 28.072,14.431 28.079,16.015C28.085,17.599 27.778,19.169 27.175,20.633C26.571,22.098 25.684,23.429 24.564,24.549C23.444,25.669 22.113,26.556 20.648,27.16C19.184,27.763 17.614,28.07 16.03,28.064C14.446,28.057 12.879,27.737 11.419,27.122C9.959,26.507 8.636,25.609 7.525,24.48C5.304,22.223 4.066,19.18 4.079,16.015C4.092,12.849 5.355,9.817 7.593,7.578C9.832,5.34 12.864,4.077 16.03,4.064C19.195,4.051 22.238,5.289 24.495,7.51Z" clip-rule="evenodd" fill-rule="evenodd" fill="#363B64"/>
</svg>
