<svg width="20" height="28" viewBox="0 0 20 28" fill="none" xmlns="http://www.w3.org/2000/svg" xmlns:xlink="http://www.w3.org/1999/xlink">
<path d="M9,0.667C3.518,0.667 -0.917,4.84 -0.917,10C-0.917,15.56 5.345,23.227 7.923,26.147C8.49,26.787 9.524,26.787 10.091,26.147C12.655,23.227 18.917,15.56 18.917,10C18.917,4.84 14.483,0.667 9,0.667ZM9,13.333C8.061,13.333 7.16,12.982 6.496,12.357C5.832,11.732 5.458,10.884 5.458,10C5.458,9.116 5.832,8.268 6.496,7.643C7.16,7.018 8.061,6.667 9,6.667C9.939,6.667 10.84,7.018 11.504,7.643C12.169,8.268 12.542,9.116 12.542,10C12.542,10.884 12.169,11.732 11.504,12.357C10.84,12.982 9.939,13.333 9,13.333L9,13.333Z" fill="#FFFFFF"/>
</svg>
