<svg width="28" height="20" viewBox="0 0 28 20" fill="none" xmlns="http://www.w3.org/2000/svg" xmlns:xlink="http://www.w3.org/1999/xlink">
<path d="M2,0L12,0C12.53,0 13.039,0.211 13.414,0.586C13.789,0.961 14,1.47 14,2C14,2.53 13.789,3.039 13.414,3.414C13.039,3.789 12.53,4 12,4L2,4C1.47,4 0.961,3.789 0.586,3.414C0.211,3.039 0,2.53 0,2C0,1.47 0.211,0.961 0.586,0.586C0.961,0.211 1.47,0 2,0L2,0ZM16,16L26,16C26.53,16 27.039,16.211 27.414,16.586C27.789,16.961 28,17.47 28,18C28,18.53 27.789,19.039 27.414,19.414C27.039,19.789 26.53,20 26,20L16,20C15.47,20 14.961,19.789 14.586,19.414C14.211,19.039 14,18.53 14,18C14,17.47 14.211,16.961 14.586,16.586C14.961,16.211 15.47,16 16,16L16,16ZM2,8L26,8C26.53,8 27.039,8.211 27.414,8.586C27.789,8.961 28,9.47 28,10C28,10.53 27.789,11.039 27.414,11.414C27.039,11.789 26.53,12 26,12L2,12C1.47,12 0.961,11.789 0.586,11.414C0.211,11.039 0,10.53 0,10C0,9.47 0.211,8.961 0.586,8.586C0.961,8.211 1.47,8 2,8Z" fill="#363B64"/>
</svg>
