<svg width="30" height="20" viewBox="0 0 30 20" fill="none" xmlns="http://www.w3.org/2000/svg" xmlns:xlink="http://www.w3.org/1999/xlink">
<path d="M1.515,0L12.037,0C12.595,0 13.13,0.211 13.525,0.586C13.919,0.961 14.141,1.47 14.141,2C14.141,2.53 13.919,3.039 13.525,3.414C13.13,3.789 12.595,4 12.037,4L1.515,4C0.957,4 0.422,3.789 0.027,3.414C-0.367,3.039 -0.589,2.53 -0.589,2C-0.589,1.47 -0.367,0.961 0.027,0.586C0.422,0.211 0.957,0 1.515,0L1.515,0ZM16.245,16L26.767,16C27.325,16 27.86,16.211 28.255,16.586C28.65,16.961 28.871,17.47 28.871,18C28.871,18.53 28.65,19.039 28.255,19.414C27.86,19.789 27.325,20 26.767,20L16.245,20C15.687,20 15.152,19.789 14.758,19.414C14.363,19.039 14.141,18.53 14.141,18C14.141,17.47 14.363,16.961 14.758,16.586C15.152,16.211 15.687,16 16.245,16L16.245,16ZM1.515,8L26.767,8C27.325,8 27.86,8.211 28.255,8.586C28.65,8.961 28.871,9.47 28.871,10C28.871,10.53 28.65,11.039 28.255,11.414C27.86,11.789 27.325,12 26.767,12L1.515,12C0.957,12 0.422,11.789 0.027,11.414C-0.367,11.039 -0.589,10.53 -0.589,10C-0.589,9.47 -0.367,8.961 0.027,8.586C0.422,8.211 0.957,8 1.515,8Z" fill="#363B64"/>
</svg>
