<svg width="38" height="38" viewBox="0 0 38 38" fill="none" xmlns="http://www.w3.org/2000/svg" xmlns:xlink="http://www.w3.org/1999/xlink">
<path d="M28.052,25.81C30.546,22.594 31.722,18.55 31.339,14.499C30.957,10.447 29.046,6.694 25.994,4.002C22.943,1.31 18.98,-0.118 14.913,0.008C10.846,0.134 6.98,1.804 4.1,4.68C1.219,7.557 -0.457,11.425 -0.586,15.495C-0.715,19.566 0.713,23.532 3.407,26.586C6.101,29.64 9.858,31.552 13.912,31.932C17.967,32.312 22.014,31.132 25.228,28.632L25.314,28.722L33.798,37.208C33.984,37.393 34.205,37.541 34.448,37.641C34.69,37.742 34.951,37.794 35.213,37.794C35.476,37.794 35.736,37.742 35.979,37.641C36.222,37.541 36.443,37.393 36.628,37.208C36.814,37.022 36.962,36.801 37.062,36.558C37.163,36.316 37.215,36.055 37.215,35.793C37.215,35.53 37.163,35.27 37.062,35.027C36.962,34.784 36.814,34.563 36.628,34.378L28.142,25.894C28.113,25.865 28.083,25.837 28.052,25.81L28.052,25.81ZM23.9,7.51C25.03,8.621 25.928,9.944 26.543,11.404C27.158,12.864 27.478,14.431 27.484,16.015C27.491,17.599 27.184,19.169 26.58,20.633C25.977,22.098 25.09,23.429 23.97,24.549C22.85,25.669 21.519,26.556 20.054,27.16C18.589,27.763 17.02,28.07 15.436,28.064C13.852,28.057 12.284,27.737 10.825,27.122C9.365,26.507 8.041,25.609 6.93,24.48C4.71,22.223 3.472,19.18 3.485,16.015C3.497,12.849 4.761,9.817 6.999,7.578C9.238,5.34 12.27,4.077 15.436,4.064C18.601,4.051 21.644,5.289 23.9,7.51Z" clip-rule="evenodd" fill-rule="evenodd" fill="#A098AE"/>
</svg>
