<svg width="24" height="24" viewBox="0 0 24 24" fill="none" xmlns="http://www.w3.org/2000/svg" xmlns:xlink="http://www.w3.org/1999/xlink">
<path d="M1.734,9.667C1.425,9.667 1.128,9.544 0.909,9.325C0.69,9.106 0.567,8.809 0.567,8.5C0.567,8.191 0.69,7.894 0.909,7.675C1.128,7.456 1.425,7.333 1.734,7.333L11.067,7.333C11.686,7.333 12.28,7.087 12.717,6.65C13.155,6.212 13.401,5.619 13.401,5C13.401,4.381 13.155,3.788 12.717,3.35C12.28,2.912 11.686,2.667 11.067,2.667C10.426,2.667 9.842,2.923 9.422,3.355C9.316,3.468 9.188,3.559 9.045,3.62C8.903,3.682 8.749,3.714 8.594,3.714C8.439,3.714 8.285,3.682 8.143,3.62C8,3.559 7.872,3.468 7.766,3.355C7.311,2.9 7.311,2.153 7.766,1.698C8.617,0.858 9.784,0.333 11.067,0.333C12.305,0.333 13.492,0.825 14.367,1.7C15.242,2.575 15.734,3.762 15.734,5C15.734,6.238 15.242,7.425 14.367,8.3C13.492,9.175 12.305,9.667 11.067,9.667L1.734,9.667ZM19.234,12C19.543,12 19.84,11.877 20.059,11.658C20.278,11.439 20.401,11.143 20.401,10.833C20.401,10.524 20.278,10.227 20.059,10.008C19.84,9.79 19.543,9.667 19.234,9.667C18.907,9.667 18.616,9.795 18.406,10.005C18.298,10.113 18.17,10.199 18.028,10.257C17.887,10.316 17.736,10.346 17.583,10.346C17.43,10.346 17.279,10.316 17.138,10.257C16.997,10.199 16.869,10.113 16.761,10.005C16.317,9.55 16.317,8.815 16.761,8.36C17.391,7.73 18.266,7.333 19.234,7.333C20.162,7.333 21.053,7.702 21.709,8.358C22.365,9.015 22.734,9.905 22.734,10.833C22.734,11.762 22.365,12.652 21.709,13.308C21.053,13.965 20.162,14.333 19.234,14.333L2.901,14.333C2.591,14.333 2.295,14.21 2.076,13.992C1.857,13.773 1.734,13.476 1.734,13.167C1.734,12.857 1.857,12.56 2.076,12.342C2.295,12.123 2.591,12 2.901,12L19.234,12ZM18.067,19L1.734,19C1.425,19 1.128,18.877 0.909,18.658C0.69,18.439 0.567,18.143 0.567,17.833C0.567,17.524 0.69,17.227 0.909,17.008C1.128,16.79 1.425,16.667 1.734,16.667L18.067,16.667C18.996,16.667 19.886,17.035 20.542,17.692C21.199,18.348 21.567,19.238 21.567,20.167C21.567,21.095 21.199,21.985 20.542,22.642C19.886,23.298 18.996,23.667 18.067,23.667C17.099,23.667 16.224,23.27 15.594,22.64C15.151,22.185 15.151,21.45 15.594,20.995C15.702,20.887 15.83,20.801 15.971,20.743C16.112,20.684 16.264,20.654 16.417,20.654C16.569,20.654 16.721,20.684 16.862,20.743C17.003,20.801 17.131,20.887 17.239,20.995C17.449,21.205 17.741,21.333 18.067,21.333C18.377,21.333 18.674,21.21 18.892,20.992C19.111,20.773 19.234,20.476 19.234,20.167C19.234,19.857 19.111,19.56 18.892,19.342C18.674,19.123 18.377,19 18.067,19Z" fill="#FFFFFF"/>
</svg>
