<svg width="28" height="40" viewBox="0 0 28 40" fill="none" xmlns="http://www.w3.org/2000/svg" xmlns:xlink="http://www.w3.org/1999/xlink">
<path d="M14,0C6.26,0 0,6.26 0,14C0,22.34 8.84,33.84 12.48,38.22C13.28,39.18 14.74,39.18 15.54,38.22C19.16,33.84 28,22.34 28,14C28,6.26 21.74,0 14,0ZM14,19C12.674,19 11.402,18.473 10.464,17.536C9.527,16.598 9,15.326 9,14C9,12.674 9.527,11.402 10.464,10.464C11.402,9.527 12.674,9 14,9C15.326,9 16.598,9.527 17.536,10.464C18.473,11.402 19,12.674 19,14C19,15.326 18.473,16.598 17.536,17.536C16.598,18.473 15.326,19 14,19L14,19Z" fill="#363B64"/>
</svg>
