<svg width="28" height="28" viewBox="0 0 28 28" fill="none" xmlns="http://www.w3.org/2000/svg" xmlns:xlink="http://www.w3.org/1999/xlink">
<path d="M22,7.733C22.707,7.733 23.386,7.452 23.886,6.952C24.386,6.452 24.667,5.774 24.667,5.067C24.667,4.359 24.386,3.681 23.886,3.181C23.386,2.681 22.707,2.4 22,2.4C21.293,2.4 20.615,2.681 20.114,3.181C19.614,3.681 19.333,4.359 19.333,5.067C19.333,5.774 19.614,6.452 20.114,6.952C20.615,7.452 21.293,7.733 22,7.733L22,7.733ZM11.237,12.053C11.377,12.779 11.365,13.525 11.203,14.245L17.923,17.628C18.76,16.636 19.93,15.983 21.214,15.792C22.498,15.602 23.808,15.885 24.897,16.591C25.987,17.296 26.782,18.375 27.133,19.625C27.484,20.874 27.368,22.209 26.805,23.379C26.242,24.549 25.273,25.474 24.077,25.979C22.882,26.485 21.543,26.538 20.311,26.127C19.08,25.717 18.041,24.871 17.388,23.749C16.736,22.627 16.515,21.305 16.767,20.032L9.98,16.616C9.256,17.428 8.301,17.999 7.243,18.253C6.185,18.507 5.074,18.431 4.061,18.035C3.047,17.64 2.179,16.943 1.572,16.04C0.965,15.137 0.649,14.07 0.667,12.982C0.684,11.894 1.034,10.837 1.669,9.954C2.304,9.07 3.194,8.402 4.219,8.039C5.245,7.676 6.357,7.635 7.407,7.922C8.456,8.209 9.393,8.811 10.091,9.645L16.805,6.283C16.509,5.019 16.684,3.69 17.298,2.546C17.911,1.402 18.92,0.521 20.137,0.068C21.353,-0.385 22.693,-0.379 23.905,0.086C25.118,0.55 26.119,1.44 26.722,2.59C27.324,3.739 27.487,5.069 27.179,6.331C26.872,7.592 26.115,8.697 25.05,9.44C23.986,10.183 22.687,10.512 21.397,10.366C20.107,10.219 18.915,9.608 18.044,8.645L11.237,12.053ZM6,15.733C6.707,15.733 7.386,15.452 7.886,14.952C8.386,14.452 8.667,13.774 8.667,13.067C8.667,12.359 8.386,11.681 7.886,11.181C7.386,10.681 6.707,10.4 6,10.4C5.293,10.4 4.615,10.681 4.114,11.181C3.614,11.681 3.333,12.359 3.333,13.067C3.333,13.774 3.614,14.452 4.114,14.952C4.615,15.452 5.293,15.733 6,15.733L6,15.733ZM22,23.733C22.707,23.733 23.386,23.452 23.886,22.952C24.386,22.452 24.667,21.774 24.667,21.067C24.667,20.359 24.386,19.681 23.886,19.181C23.386,18.681 22.707,18.4 22,18.4C21.293,18.4 20.615,18.681 20.114,19.181C19.614,19.681 19.333,20.359 19.333,21.067C19.333,21.774 19.614,22.452 20.114,22.952C20.615,23.452 21.293,23.733 22,23.733L22,23.733Z" fill="url(#pf_0_20_19)"/>
<defs>
<linearGradient id="pf_0_20_19" x1="-2.251" y1="18.484" x2="27.332" y2="7.65" gradientUnits="userSpaceOnUse">
<stop stop-color="#0C386C"/>
<stop offset="1" stop-color="#294F97"/>
</linearGradient>
</defs>
</svg>
