<svg width="40" height="74" viewBox="0 0 40 74" fill="none" xmlns="http://www.w3.org/2000/svg" xmlns:xlink="http://www.w3.org/1999/xlink">
<path d="M22.768,46.933L22.768,24.333C22.768,23.449 22.419,22.602 21.8,21.976C21.18,21.351 20.339,21 19.463,21C18.587,21 17.746,21.351 17.126,21.976C16.507,22.602 16.159,23.449 16.159,24.333L16.159,46.933C15.16,47.515 14.329,48.35 13.75,49.356C13.17,50.362 12.861,51.503 12.854,52.667C12.854,54.435 13.55,56.131 14.79,57.381C16.029,58.631 17.71,59.333 19.463,59.333C21.216,59.333 22.897,58.631 24.136,57.381C25.376,56.131 26.072,54.435 26.072,52.667C26.065,51.503 25.756,50.362 25.177,49.356C24.597,48.35 23.766,47.515 22.768,46.933ZM34.333,39.333L34.333,14.333C34.333,10.355 32.766,6.54 29.978,3.727C27.189,0.914 23.407,-0.667 19.463,-0.667C15.519,-0.667 11.737,0.914 8.948,3.727C6.16,6.54 4.593,10.355 4.593,14.333L4.593,39.333C2.309,41.944 0.741,45.111 0.042,48.521C-0.656,51.931 -0.46,55.465 0.612,58.775C1.683,62.085 3.593,65.055 6.151,67.392C8.71,69.729 11.829,71.352 15.2,72.1C16.601,72.422 18.028,72.612 19.463,72.667C23.298,72.685 27.056,71.58 30.282,69.487C33.507,67.394 36.062,64.402 37.636,60.874C39.21,57.346 39.735,53.433 39.149,49.61C38.563,45.787 36.89,42.217 34.333,39.333L34.333,39.333ZM27.724,62.9C25.095,65.252 21.647,66.453 18.14,66.241C14.632,66.028 11.352,64.419 9.021,61.767C6.69,59.115 5.499,55.637 5.709,52.099C5.92,48.561 7.515,45.252 10.145,42.9C10.457,42.591 10.705,42.223 10.875,41.817C11.046,41.411 11.134,40.974 11.136,40.533L11.136,14.333C11.136,12.123 12.006,10.004 13.555,8.441C15.105,6.878 17.206,6 19.397,6C21.588,6 23.689,6.878 25.238,8.441C26.788,10.004 27.658,12.123 27.658,14.333L27.658,40.8C27.66,41.241 27.748,41.677 27.919,42.084C28.089,42.49 28.337,42.858 28.649,43.167C30,44.483 31.057,46.074 31.75,47.835C32.444,49.596 32.757,51.485 32.669,53.378C32.582,55.27 32.095,57.122 31.243,58.81C30.39,60.498 29.191,61.983 27.724,63.167L27.724,62.9Z" fill="url(#pf_0_57_119)"/>
<defs>
<linearGradient id="pf_0_57_119" x1="19.507" y1="-0.667" x2="19.507" y2="72.667" gradientUnits="userSpaceOnUse">
<stop stop-color="#3C6FD1"/>
<stop offset="0" stop-color="#3C6FD1"/>
<stop offset="1" stop-color="#7CA9FF"/>
</linearGradient>
</defs>
</svg>
