<svg width="32" height="32" viewBox="0 0 32 32" fill="none" xmlns="http://www.w3.org/2000/svg" xmlns:xlink="http://www.w3.org/1999/xlink">
<path d="M16,2.067C12.552,2.067 9.246,3.436 6.808,5.874C4.37,8.312 3,11.619 3,15.067C3,18.514 4.37,21.821 6.808,24.259C9.246,26.697 12.552,28.067 16,28.067C19.448,28.067 22.754,26.697 25.192,24.259C27.63,21.821 29,18.514 29,15.067C29,11.619 27.63,8.312 25.192,5.874C22.754,3.436 19.448,2.067 16,2.067L16,2.067ZM0,15.067C0,10.823 1.686,6.754 4.686,3.753C7.687,0.752 11.757,-0.933 16,-0.933C20.243,-0.933 24.313,0.752 27.314,3.753C30.314,6.754 32,10.823 32,15.067C32,19.31 30.314,23.38 27.314,26.38C24.313,29.381 20.243,31.067 16,31.067C11.757,31.067 7.687,29.381 4.686,26.38C1.686,23.38 0,19.31 0,15.067L0,15.067ZM13,14.567C13,14.169 13.158,13.787 13.439,13.506C13.721,13.225 14.102,13.067 14.5,13.067L16.5,13.067C16.898,13.067 17.279,13.225 17.561,13.506C17.842,13.787 18,14.169 18,14.567L18,20.067L18.5,20.067C18.898,20.067 19.279,20.225 19.561,20.506C19.842,20.787 20,21.169 20,21.567C20,21.964 19.842,22.346 19.561,22.627C19.279,22.909 18.898,23.067 18.5,23.067L14.5,23.067C14.102,23.067 13.721,22.909 13.439,22.627C13.158,22.346 13,21.964 13,21.567C13,21.169 13.158,20.787 13.439,20.506C13.721,20.225 14.102,20.067 14.5,20.067L15,20.067L15,16.067L14.5,16.067C14.102,16.067 13.721,15.909 13.439,15.627C13.158,15.346 13,14.964 13,14.567L13,14.567ZM16,11.067C16.53,11.067 17.039,10.856 17.414,10.481C17.789,10.106 18,9.597 18,9.067C18,8.536 17.789,8.028 17.414,7.652C17.039,7.277 16.53,7.067 16,7.067C15.47,7.067 14.961,7.277 14.586,7.652C14.211,8.028 14,8.536 14,9.067C14,9.597 14.211,10.106 14.586,10.481C14.961,10.856 15.47,11.067 16,11.067Z" clip-rule="evenodd" fill-rule="evenodd" fill="url(#pf_0_11_65)"/>
<defs>
<linearGradient id="pf_0_11_65" x1="-3.5" y1="21.567" x2="32" y2="8.567" gradientUnits="userSpaceOnUse">
<stop stop-color="#0C386C"/>
<stop offset="1" stop-color="#294F97"/>
</linearGradient>
</defs>
</svg>
