<svg width="30" height="30" viewBox="0 0 30 30" fill="none" xmlns="http://www.w3.org/2000/svg" xmlns:xlink="http://www.w3.org/1999/xlink">
<path d="M16.568,2L15.068,6.401L13.568,2C13.487,1.762 13.464,1.507 13.501,1.258C13.538,1.009 13.633,0.773 13.78,0.568C13.927,0.364 14.12,0.197 14.344,0.082C14.568,-0.033 14.816,-0.093 15.068,-0.093C15.319,-0.093 15.567,-0.033 15.791,0.082C16.015,0.197 16.208,0.364 16.355,0.568C16.502,0.773 16.597,1.009 16.634,1.258C16.671,1.507 16.648,1.762 16.568,2ZM3.068,12.5L7.469,14L3.068,15.5C2.829,15.581 2.575,15.604 2.326,15.567C2.077,15.53 1.84,15.434 1.636,15.288C1.431,15.141 1.265,14.948 1.15,14.724C1.035,14.5 0.975,14.252 0.975,14C0.975,13.748 1.035,13.5 1.15,13.276C1.265,13.052 1.431,12.859 1.636,12.713C1.84,12.566 2.077,12.47 2.326,12.433C2.575,12.396 2.829,12.419 3.068,12.5ZM13.568,26L15.068,21.599L16.568,26C16.648,26.238 16.671,26.493 16.634,26.742C16.597,26.99 16.502,27.227 16.355,27.432C16.208,27.636 16.015,27.803 15.791,27.918C15.567,28.033 15.319,28.093 15.068,28.093C14.816,28.093 14.568,28.033 14.344,27.918C14.12,27.803 13.927,27.636 13.78,27.432C13.633,27.227 13.538,26.99 13.501,26.742C13.464,26.493 13.487,26.238 13.568,26ZM27.068,15.497L22.667,13.997L27.068,12.497C27.306,12.416 27.56,12.393 27.809,12.43C28.058,12.467 28.295,12.563 28.499,12.71C28.704,12.856 28.871,13.049 28.986,13.273C29.101,13.497 29.161,13.745 29.161,13.997C29.161,14.249 29.101,14.497 28.986,14.721C28.871,14.945 28.704,15.138 28.499,15.285C28.295,15.431 28.058,15.527 27.809,15.564C27.56,15.601 27.306,15.578 27.068,15.497ZM7.643,4.454L9.693,8.626L5.522,6.575C5.295,6.464 5.098,6.301 4.947,6.098C4.796,5.896 4.696,5.661 4.655,5.412C4.613,5.163 4.632,4.907 4.709,4.667C4.786,4.427 4.919,4.208 5.097,4.03C5.276,3.851 5.494,3.718 5.735,3.641C5.975,3.564 6.23,3.545 6.479,3.587C6.728,3.628 6.964,3.729 7.166,3.88C7.368,4.03 7.532,4.227 7.643,4.454L7.643,4.454ZM5.522,21.423L9.693,19.373L7.643,23.544C7.532,23.771 7.368,23.968 7.166,24.119C6.964,24.27 6.728,24.37 6.479,24.412C6.23,24.453 5.975,24.435 5.735,24.357C5.494,24.28 5.276,24.147 5.097,23.969C4.919,23.79 4.786,23.572 4.709,23.331C4.632,23.091 4.613,22.836 4.655,22.587C4.696,22.338 4.796,22.103 4.947,21.9C5.098,21.698 5.295,21.534 5.522,21.423L5.522,21.423ZM22.491,23.544L20.441,19.373L24.612,21.423C24.839,21.534 25.036,21.698 25.187,21.9C25.337,22.103 25.438,22.338 25.479,22.587C25.521,22.836 25.502,23.091 25.425,23.331C25.348,23.572 25.215,23.79 25.036,23.969C24.858,24.147 24.639,24.28 24.399,24.357C24.159,24.435 23.903,24.453 23.655,24.412C23.406,24.37 23.17,24.27 22.968,24.119C22.765,23.968 22.602,23.771 22.491,23.544L22.491,23.544ZM24.611,6.572L20.438,8.624L22.49,4.451C22.6,4.224 22.764,4.027 22.966,3.877C23.169,3.726 23.404,3.625 23.653,3.584C23.902,3.542 24.157,3.561 24.398,3.638C24.638,3.715 24.856,3.848 25.035,4.027C25.213,4.205 25.347,4.424 25.424,4.664C25.501,4.904 25.519,5.16 25.478,5.409C25.436,5.658 25.336,5.893 25.185,6.095C25.034,6.298 24.837,6.461 24.611,6.572L24.611,6.572ZM15.068,20.75C11.346,20.75 8.318,17.722 8.318,14C8.318,10.279 11.346,7.25 15.068,7.25C18.789,7.25 21.818,10.279 21.818,14C21.818,17.722 18.789,20.75 15.068,20.75ZM15.068,10.25C12.999,10.25 11.318,11.932 11.318,14C11.318,16.069 12.999,17.75 15.068,17.75C17.136,17.75 18.818,16.069 18.818,14C18.818,11.932 17.136,10.25 15.068,10.25Z" fill="#FFFFFF"/>
</svg>
