<svg width="34" height="20" viewBox="0 0 34 20" fill="none" xmlns="http://www.w3.org/2000/svg" xmlns:xlink="http://www.w3.org/1999/xlink">
<path d="M-0.8,2.8C-0.8,2.164 -0.547,1.553 -0.097,1.103C0.353,0.653 0.964,0.4 1.6,0.4L30.4,0.4C31.037,0.4 31.647,0.653 32.097,1.103C32.547,1.553 32.8,2.164 32.8,2.8C32.8,3.437 32.547,4.047 32.097,4.497C31.647,4.947 31.037,5.2 30.4,5.2L1.6,5.2C0.964,5.2 0.353,4.947 -0.097,4.497C-0.547,4.047 -0.8,3.437 -0.8,2.8ZM-0.8,17.2C-0.8,16.564 -0.547,15.953 -0.097,15.503C0.353,15.053 0.964,14.8 1.6,14.8L30.4,14.8C31.037,14.8 31.647,15.053 32.097,15.503C32.547,15.953 32.8,16.564 32.8,17.2C32.8,17.837 32.547,18.447 32.097,18.897C31.647,19.347 31.037,19.6 30.4,19.6L1.6,19.6C0.964,19.6 0.353,19.347 -0.097,18.897C-0.547,18.447 -0.8,17.837 -0.8,17.2Z" clip-rule="evenodd" fill-rule="evenodd" fill="#363B64"/>
</svg>
