<svg width="74" height="68" viewBox="0 0 74 68" fill="none" xmlns="http://www.w3.org/2000/svg" xmlns:xlink="http://www.w3.org/1999/xlink">
<path d="M16.498,40.667C17.374,40.667 18.215,41.018 18.834,41.643C19.454,42.268 19.802,43.116 19.802,44C19.802,44.884 19.454,45.732 18.834,46.357C18.215,46.982 17.374,47.333 16.498,47.333C14.328,47.333 12.18,46.902 10.175,46.065C8.17,45.227 6.349,43.999 4.815,42.452C1.716,39.326 -0.024,35.087 -0.024,30.667C-0.024,26.246 1.716,22.007 4.815,18.882C7.913,15.756 12.116,14 16.498,14C19.802,6.167 27.402,0.667 36.324,0.667C47.659,0.667 56.944,9.533 57.803,20.767L59.455,20.667C62.961,20.667 66.323,22.071 68.802,24.572C71.281,27.072 72.673,30.464 72.673,34C72.673,37.536 71.281,40.928 68.802,43.428C66.323,45.929 62.961,47.333 59.455,47.333L56.151,47.333C55.275,47.333 54.434,46.982 53.814,46.357C53.195,45.732 52.846,44.884 52.846,44C52.846,43.116 53.195,42.268 53.814,41.643C54.434,41.018 55.275,40.667 56.151,40.667L59.455,40.667C61.208,40.667 62.889,39.964 64.129,38.714C65.368,37.464 66.064,35.768 66.064,34C66.064,32.232 65.368,30.536 64.129,29.286C62.889,28.036 61.208,27.333 59.455,27.333L52.846,27.333L52.846,24C52.846,19.58 51.106,15.34 48.007,12.215C44.909,9.089 40.706,7.333 36.324,7.333C28.063,7.333 21.289,13.4 20,21.3C18.91,20.9 17.72,20.667 16.498,20.667C13.869,20.667 11.347,21.72 9.488,23.596C7.629,25.471 6.584,28.014 6.584,30.667C6.584,33.319 7.629,35.862 9.488,37.738C11.347,39.613 13.869,40.667 16.498,40.667L16.498,40.667ZM29.715,54C31.468,54 33.149,54.702 34.389,55.953C35.628,57.203 36.324,58.898 36.324,60.667C36.324,62.435 35.628,64.13 34.389,65.381C33.149,66.631 31.468,67.333 29.715,67.333C27.963,67.333 26.282,66.631 25.042,65.381C23.803,64.13 23.107,62.435 23.107,60.667C23.107,58.898 23.803,57.203 25.042,55.953C26.282,54.702 27.963,54 29.715,54ZM44.585,47.333C45.9,47.333 47.161,47.86 48.09,48.798C49.02,49.735 49.542,51.007 49.542,52.333C49.542,53.659 49.02,54.931 48.09,55.869C47.161,56.806 45.9,57.333 44.585,57.333C43.271,57.333 42.01,56.806 41.081,55.869C40.151,54.931 39.629,53.659 39.629,52.333C39.629,51.007 40.151,49.735 41.081,48.798C42.01,47.86 43.271,47.333 44.585,47.333L44.585,47.333ZM31.368,34C32.682,34 33.943,34.527 34.873,35.464C35.802,36.402 36.324,37.674 36.324,39C36.324,40.326 35.802,41.598 34.873,42.535C33.943,43.473 32.682,44 31.368,44C30.053,44 28.792,43.473 27.863,42.535C26.933,41.598 26.411,40.326 26.411,39C26.411,37.674 26.933,36.402 27.863,35.464C28.792,34.527 30.053,34 31.368,34Z" fill="url(#pf_0_57_112)"/>
<defs>
<linearGradient id="pf_0_57_112" x1="36.324" y1="0.667" x2="36.324" y2="67.333" gradientUnits="userSpaceOnUse">
<stop stop-color="#3C6FD1"/>
<stop offset="0" stop-color="#3C6FD1"/>
<stop offset="1" stop-color="#7CA9FF"/>
</linearGradient>
</defs>
</svg>
