<svg width="28" height="28" viewBox="0 0 28 28" fill="none" xmlns="http://www.w3.org/2000/svg" xmlns:xlink="http://www.w3.org/1999/xlink">
<path d="M15.333,-0.333L15.333,3.707C19.853,4.36 23.333,8.227 23.333,12.933C23.333,14.133 23.093,15.267 22.693,16.32L26.16,18.36C26.907,16.707 27.333,14.867 27.333,12.933C27.333,6.027 22.067,0.333 15.333,-0.333L15.333,-0.333ZM14,22.267C8.84,22.267 4.667,18.093 4.667,12.933C4.667,8.227 8.147,4.36 12.667,3.707L12.667,-0.333C5.92,0.333 0.667,6.013 0.667,12.933C0.667,20.293 6.627,26.267 13.987,26.267C18.4,26.267 22.307,24.12 24.733,20.813L21.267,18.773C20.397,19.865 19.291,20.747 18.033,21.352C16.775,21.957 15.396,22.269 14,22.267L14,22.267Z" fill="url(#pf_0_11_81)"/>
<defs>
<linearGradient id="pf_0_11_81" x1="-2.25" y1="18.37" x2="27.333" y2="7.563" gradientUnits="userSpaceOnUse">
<stop stop-color="#0C386C"/>
<stop offset="1" stop-color="#294F97"/>
</linearGradient>
</defs>
</svg>
