<svg width="76" height="80" viewBox="0 0 76 80" fill="none" xmlns="http://www.w3.org/2000/svg" xmlns:xlink="http://www.w3.org/1999/xlink">
<path d="M4,32C2.939,32 1.921,31.579 1.171,30.828C0.421,30.078 0,29.061 0,28C0,26.939 0.421,25.922 1.171,25.172C1.921,24.421 2.939,24 4,24L36,24C38.121,24 40.156,23.157 41.656,21.657C43.157,20.157 44,18.122 44,16C44,13.878 43.157,11.843 41.656,10.343C40.156,8.843 38.121,8 36,8C33.8,8 31.8,8.88 30.36,10.36C29.996,10.748 29.556,11.058 29.067,11.27C28.579,11.482 28.052,11.591 27.52,11.591C26.987,11.591 26.46,11.482 25.972,11.27C25.483,11.058 25.044,10.748 24.68,10.36C23.12,8.8 23.12,6.24 24.68,4.68C27.6,1.8 31.6,0 36,0C40.243,0 44.313,1.686 47.313,4.686C50.314,7.687 52,11.757 52,16C52,20.243 50.314,24.313 47.313,27.314C44.313,30.314 40.243,32 36,32L4,32ZM64,40C65.06,40 66.078,39.579 66.828,38.828C67.578,38.078 68,37.061 68,36C68,34.939 67.578,33.922 66.828,33.172C66.078,32.421 65.06,32 64,32C62.88,32 61.88,32.44 61.16,33.16C60.79,33.531 60.35,33.825 59.866,34.026C59.382,34.226 58.863,34.33 58.34,34.33C57.816,34.33 57.297,34.226 56.813,34.026C56.329,33.825 55.89,33.531 55.52,33.16C54,31.6 54,29.08 55.52,27.52C57.68,25.36 60.68,24 64,24C67.182,24 70.234,25.264 72.485,27.515C74.735,29.765 76,32.817 76,36C76,39.183 74.735,42.235 72.485,44.485C70.234,46.736 67.182,48 64,48L8,48C6.939,48 5.921,47.579 5.171,46.828C4.421,46.078 4,45.061 4,44C4,42.939 4.421,41.922 5.171,41.172C5.921,40.421 6.939,40 8,40L64,40ZM60,64L4,64C2.939,64 1.921,63.579 1.171,62.828C0.421,62.078 0,61.061 0,60C0,58.939 0.421,57.922 1.171,57.172C1.921,56.421 2.939,56 4,56L60,56C63.182,56 66.234,57.264 68.485,59.515C70.735,61.765 72,64.817 72,68C72,71.183 70.735,74.235 68.485,76.485C66.234,78.736 63.182,80 60,80C56.68,80 53.68,78.64 51.52,76.48C50,74.92 50,72.4 51.52,70.84C51.89,70.469 52.329,70.175 52.813,69.974C53.297,69.774 53.816,69.67 54.34,69.67C54.863,69.67 55.382,69.774 55.866,69.974C56.35,70.175 56.79,70.469 57.16,70.84C57.88,71.56 58.88,72 60,72C61.06,72 62.078,71.579 62.828,70.828C63.578,70.078 64,69.061 64,68C64,66.939 63.578,65.922 62.828,65.172C62.078,64.421 61.06,64 60,64Z" fill="#363B64"/>
</svg>
