<svg width="64" height="68" viewBox="0 0 64 68" fill="none" xmlns="http://www.w3.org/2000/svg" xmlns:xlink="http://www.w3.org/1999/xlink">
<path d="M3.888,27.333C3.012,27.333 2.172,26.982 1.552,26.357C0.932,25.732 0.584,24.884 0.584,24C0.584,23.116 0.932,22.268 1.552,21.643C2.172,21.018 3.012,20.667 3.888,20.667L30.324,20.667C32.077,20.667 33.758,19.964 34.997,18.714C36.236,17.464 36.933,15.768 36.933,14C36.933,12.232 36.236,10.536 34.997,9.286C33.758,8.036 32.077,7.333 30.324,7.333C28.506,7.333 26.854,8.067 25.665,9.3C25.364,9.624 25.001,9.882 24.597,10.058C24.193,10.235 23.758,10.326 23.318,10.326C22.879,10.326 22.444,10.235 22.04,10.058C21.636,9.882 21.273,9.624 20.972,9.3C19.684,8 19.684,5.867 20.972,4.567C23.385,2.167 26.689,0.667 30.324,0.667C33.829,0.667 37.191,2.071 39.67,4.572C42.149,7.072 43.542,10.464 43.542,14C43.542,17.536 42.149,20.928 39.67,23.428C37.191,25.929 33.829,27.333 30.324,27.333L3.888,27.333ZM53.455,34C54.331,34 55.172,33.649 55.791,33.024C56.411,32.398 56.759,31.551 56.759,30.667C56.759,29.783 56.411,28.935 55.791,28.31C55.172,27.684 54.331,27.333 53.455,27.333C52.53,27.333 51.704,27.7 51.109,28.3C50.803,28.609 50.44,28.854 50.04,29.021C49.64,29.189 49.212,29.275 48.779,29.275C48.346,29.275 47.918,29.189 47.518,29.021C47.118,28.854 46.755,28.609 46.45,28.3C45.194,27 45.194,24.9 46.45,23.6C48.234,21.8 50.712,20.667 53.455,20.667C56.084,20.667 58.606,21.72 60.465,23.596C62.324,25.471 63.368,28.014 63.368,30.667C63.368,33.319 62.324,35.862 60.465,37.738C58.606,39.613 56.084,40.667 53.455,40.667L7.193,40.667C6.316,40.667 5.476,40.315 4.856,39.69C4.237,39.065 3.888,38.217 3.888,37.333C3.888,36.449 4.237,35.601 4.856,34.976C5.476,34.351 6.316,34 7.193,34L53.455,34ZM50.15,54L3.888,54C3.012,54 2.172,53.649 1.552,53.024C0.932,52.399 0.584,51.551 0.584,50.667C0.584,49.783 0.932,48.935 1.552,48.31C2.172,47.684 3.012,47.333 3.888,47.333L50.15,47.333C52.78,47.333 55.301,48.387 57.16,50.262C59.019,52.138 60.064,54.681 60.064,57.333C60.064,59.985 59.019,62.529 57.16,64.404C55.301,66.28 52.78,67.333 50.15,67.333C47.408,67.333 44.929,66.2 43.145,64.4C41.889,63.1 41.889,61 43.145,59.7C43.451,59.391 43.814,59.146 44.214,58.978C44.613,58.811 45.042,58.725 45.475,58.725C45.907,58.725 46.336,58.811 46.736,58.978C47.136,59.146 47.499,59.391 47.804,59.7C48.399,60.3 49.225,60.667 50.15,60.667C51.027,60.667 51.867,60.315 52.487,59.69C53.107,59.065 53.455,58.217 53.455,57.333C53.455,56.449 53.107,55.601 52.487,54.976C51.867,54.351 51.027,54 50.15,54Z" fill="url(#pf_0_57_105)"/>
<defs>
<linearGradient id="pf_0_57_105" x1="31.976" y1="0.667" x2="31.976" y2="67.333" gradientUnits="userSpaceOnUse">
<stop stop-color="#3C6FD1"/>
<stop offset="0" stop-color="#3C6FD1"/>
<stop offset="1" stop-color="#7CA9FF"/>
</linearGradient>
</defs>
</svg>
