<svg width="50" height="52" viewBox="0 0 50 52" fill="none" xmlns="http://www.w3.org/2000/svg" xmlns:xlink="http://www.w3.org/1999/xlink">
<path d="M26.871,4.667L24.258,12.491L21.644,4.667C21.503,4.243 21.464,3.791 21.528,3.348C21.592,2.906 21.759,2.485 22.015,2.121C22.27,1.758 22.607,1.461 22.997,1.257C23.387,1.052 23.819,0.946 24.258,0.946C24.696,0.946 25.129,1.052 25.519,1.257C25.909,1.461 26.245,1.758 26.501,2.121C26.756,2.485 26.923,2.906 26.988,3.348C27.052,3.791 27.012,4.243 26.871,4.667ZM3.351,23.333L11.018,26L3.351,28.667C2.935,28.81 2.492,28.851 2.059,28.785C1.625,28.72 1.213,28.55 0.856,28.289C0.5,28.028 0.209,27.685 0.009,27.287C-0.191,26.888 -0.296,26.447 -0.296,26C-0.296,25.552 -0.191,25.111 0.009,24.713C0.209,24.315 0.5,23.972 0.856,23.711C1.213,23.45 1.625,23.28 2.059,23.214C2.492,23.149 2.935,23.19 3.351,23.333ZM21.644,47.333L24.258,39.509L26.871,47.333C27.012,47.757 27.052,48.209 26.988,48.652C26.923,49.094 26.756,49.515 26.501,49.879C26.245,50.242 25.909,50.539 25.519,50.743C25.129,50.948 24.696,51.054 24.258,51.054C23.819,51.054 23.387,50.948 22.997,50.743C22.607,50.539 22.27,50.242 22.015,49.879C21.759,49.515 21.592,49.094 21.528,48.652C21.464,48.209 21.503,47.757 21.644,47.333ZM45.165,28.661L37.497,25.995L45.165,23.328C45.58,23.184 46.023,23.143 46.457,23.209C46.891,23.275 47.303,23.445 47.659,23.706C48.016,23.966 48.306,24.31 48.507,24.708C48.707,25.106 48.811,25.547 48.811,25.995C48.811,26.442 48.707,26.883 48.507,27.281C48.306,27.679 48.016,28.023 47.659,28.284C47.303,28.544 46.891,28.714 46.457,28.78C46.023,28.846 45.58,28.805 45.165,28.661ZM11.321,9.029L14.894,16.445L7.626,12.8C7.231,12.603 6.888,12.312 6.625,11.952C6.363,11.593 6.188,11.174 6.115,10.732C6.043,10.289 6.075,9.835 6.21,9.408C6.344,8.981 6.576,8.592 6.887,8.275C7.198,7.958 7.578,7.721 7.997,7.584C8.416,7.447 8.861,7.414 9.294,7.488C9.728,7.562 10.138,7.74 10.491,8.008C10.843,8.276 11.128,8.626 11.321,9.029L11.321,9.029ZM7.626,39.197L14.894,35.552L11.321,42.968C11.128,43.371 10.843,43.721 10.491,43.989C10.138,44.257 9.728,44.436 9.294,44.509C8.861,44.583 8.416,44.55 7.997,44.413C7.578,44.276 7.198,44.04 6.887,43.722C6.576,43.405 6.344,43.017 6.21,42.589C6.075,42.162 6.043,41.708 6.115,41.266C6.188,40.823 6.363,40.405 6.625,40.045C6.888,39.685 7.231,39.395 7.626,39.197L7.626,39.197ZM37.191,42.968L33.619,35.552L40.887,39.197C41.282,39.395 41.625,39.685 41.888,40.045C42.15,40.405 42.325,40.823 42.397,41.266C42.47,41.708 42.437,42.162 42.303,42.589C42.169,43.017 41.937,43.405 41.626,43.722C41.315,44.04 40.934,44.276 40.516,44.413C40.097,44.55 39.652,44.583 39.218,44.509C38.785,44.436 38.375,44.257 38.022,43.989C37.669,43.721 37.385,43.371 37.191,42.968L37.191,42.968ZM40.884,12.795L33.614,16.443L37.189,9.024C37.382,8.621 37.667,8.271 38.019,8.003C38.372,7.735 38.782,7.556 39.216,7.483C39.65,7.409 40.094,7.442 40.513,7.579C40.932,7.716 41.312,7.952 41.623,8.27C41.934,8.587 42.166,8.975 42.301,9.403C42.435,9.83 42.467,10.284 42.395,10.726C42.323,11.169 42.148,11.587 41.885,11.947C41.622,12.307 41.279,12.597 40.884,12.795L40.884,12.795ZM24.258,38C17.774,38 12.497,32.616 12.497,26C12.497,19.384 17.774,14 24.258,14C30.742,14 36.018,19.384 36.018,26C36.018,32.616 30.742,38 24.258,38ZM24.258,19.333C20.654,19.333 17.724,22.323 17.724,26C17.724,29.677 20.654,32.667 24.258,32.667C27.862,32.667 30.791,29.677 30.791,26C30.791,22.323 27.862,19.333 24.258,19.333Z" fill="#FF9F5A"/>
</svg>
